<?xml version="1.0" encoding="utf-8"?>
<!-- Generator: Adobe Illustrator 26.1.0, SVG Export Plug-In . SVG Version: 6.00 Build 0)  -->
<svg version="1.1" id="Treasure_x5F_logo_x5F_On_x5F_Dark_x5F_AW"
	 xmlns="http://www.w3.org/2000/svg" xmlns:xlink="http://www.w3.org/1999/xlink" x="0px" y="0px" viewBox="0 0 851.109 157.001"
	 style="enable-background:new 0 0 851.109 157.001;" xml:space="preserve">
<style type="text/css">
	.st0{fill:#DC2626;}
	.st1{fill:#FFFCF5;}
	.st2{fill:#FFFDF7;}
</style>
<g id="Logo">
	<g id="Logomark">
		<path class="st0" d="M0,48.94v59.151c0,9.792,5.212,18.824,13.64,23.69l38.85,22.505c6.24,3.619,13.9,3.619,20.15,0l38.85-22.505
			c8.42-4.896,13.63-13.928,13.63-23.69V48.94c0-9.793-5.21-18.825-13.63-23.691L72.64,2.714c-6.25-3.619-13.91-3.619-20.15,0
			L13.64,25.219C5.212,30.115,0,39.147,0,48.94z"/>
	</g>
	<g>
		<g>
			<path class="st1" d="M27.597,49.431l5.093,1.707c1.876,0.643,3.28,2.192,3.647,4.141l2.148,10.558
				c0.063,0.274,0.304,0.453,0.587,0.453c0.283,0,0.524-0.179,0.587-0.453l2.148-10.558c0.398-1.918,1.781-3.499,3.678-4.141
				l5.093-1.707c0.241-0.095,0.398-0.306,0.398-0.548c0-0.242-0.157-0.453-0.398-0.548l-5.093-1.707
				c-1.876-0.643-3.28-2.192-3.678-4.141l-2.148-10.558c-0.063-0.274-0.304-0.453-0.587-0.453c-0.283,0-0.524,0.179-0.587,0.453
				l-2.148,10.558c-0.398,1.918-1.781,3.498-3.647,4.141l-5.093,1.707c-0.241,0.095-0.398,0.306-0.398,0.548
				C27.199,49.125,27.356,49.336,27.597,49.431z"/>
			<path class="st1" d="M54.077,123.329l-1.897-5.964c-0.398-1.233-1.331-2.223-2.546-2.666
				c-14.136-5.111-24.458-18.346-25.359-34.067c-0.073-1.212,0.891-2.245,2.096-2.245h6.298c1.1,0,2.001,0.854,2.085,1.95
				c0.995,14.552,13.088,26.08,27.811,26.08h5.061c2.798,0,4.202,3.404,2.222,5.395l-12.292,12.36
				C56.445,125.289,54.559,124.825,54.077,123.329z"/>
			<path class="st1" d="M98.749,78.387h-6.298c-1.1,0-2.012-0.854-2.085-1.96C89.444,63.129,79.258,52.181,65.94,50.558
				l-4.275-0.516c-2.599-0.316-3.699-3.509-1.844-5.374l11.328-11.391c1.153-1.159,3.112-0.611,3.51,0.97l1.582,6.28
				c0.304,1.212,1.132,2.244,2.263,2.771c12.669,5.827,21.503,18.356,22.341,32.845C100.919,77.354,99.954,78.387,98.749,78.387z"/>
			<path class="st1" d="M59.739,67.957l-7.662,7.704c-1.559,1.568-1.559,4.11,0,5.678l7.662,7.704c1.559,1.568,4.087,1.568,5.646,0
				l7.662-7.704c1.559-1.568,1.559-4.11,0-5.678l-7.662-7.704C63.826,66.389,61.298,66.389,59.739,67.957z"/>
		</g>
	</g>
	<g id="Wordmark_00000010287244250793224150000015045456393756375191_">
		<path class="st2" d="M215.718,79.54l20.353-42.628c0.21-0.44,0.631-0.705,1.121-0.705h28.094c0.421,0,0.788,0.191,1.028,0.543
			c0.235,0.352,0.279,0.763,0.122,1.16l-3.382,8.427v63.739l3.382,8.432c0.157,0.391,0.113,0.803-0.122,1.155
			c-0.24,0.352-0.607,0.543-1.028,0.543h-27.414c-0.426,0-0.788-0.191-1.028-0.543c-0.24-0.352-0.284-0.763-0.122-1.155l3.377-8.432
			V60.02l-28.725,60.984c-0.215,0.45-0.646,0.719-1.145,0.71c-0.499-0.005-0.925-0.289-1.121-0.749l-24.953-58.254V106.7
			l4.737,11.808c0.157,0.391,0.113,0.803-0.127,1.155c-0.235,0.352-0.602,0.548-1.023,0.548h-20.827
			c-0.421,0-0.788-0.196-1.028-0.548c-0.235-0.352-0.279-0.763-0.122-1.155l4.737-11.808V46.337l-3.381-8.427
			c-0.157-0.396-0.113-0.807,0.127-1.16c0.235-0.352,0.602-0.543,1.028-0.543h28.217c0.509,0,0.94,0.289,1.14,0.754L215.718,79.54z"
			/>
		<path class="st2" d="M342.306,118.552c0.157,0.387,0.113,0.793-0.122,1.135c-0.235,0.347-0.592,0.533-1.008,0.533h-23.944
			c-0.67,0-1.219-0.543-1.219-1.214v-3.724c-5.887,4.458-12.763,6.386-20.284,6.386c-8.27,0-16.653-3.142-20.074-11.226
			c-3.401-8.045-0.161-16.922,5.564-22.976c8.701-9.195,22.232-12.268,34.456-12.273c0.103-0.01,0.206-0.015,0.303-0.02
			c-0.137-2.207-0.739-4.634-2.677-5.848c-7.937-4.972-20.529,2.3-27.155,7.013c-0.303,0.215-0.651,0.279-1.013,0.186
			c-0.357-0.093-0.631-0.318-0.793-0.651l-5.285-10.996c-0.152-0.308-0.166-0.631-0.044-0.954s0.343-0.553,0.661-0.69
			c17.661-7.61,59.252-9.626,59.252,18.053v28.833L342.306,118.552z M316.013,85.633c-4.874,0.494-9.239,2.711-12.488,6.46
			c-2.623,3.029-4.668,7.389-4.453,11.471c0.088,1.679,0.651,3.279,2.075,4.272c2.633,1.83,6.553,0.734,9.014-0.871
			c3.881-2.53,5.853-6.773,5.853-11.343V85.633z"/>
		<path class="st2" d="M408.688,144.586c-0.054-0.054-0.093-0.117-0.127-0.186c-0.049-0.083-0.078-0.176-0.098-0.269
			c-0.044-0.201-0.024-0.401,0.059-0.587c0.005-0.01,0.005-0.015,0.01-0.02c0.02-0.049,0.049-0.093,0.078-0.137
			c0-0.005,0.005-0.01,0.01-0.02c2.843-4.111-0.509-7.815-6.768-5.911c-7.389,2.236-24.023,6.494-31.588,6.587
			c-8.848,0.103-17.651-2.657-21.669-11.045c-4.947-10.33,2.687-23.465,11.055-27.023c-20.705-14.456-12.528-47.272,23.514-47.272
			c5.877,0,11.857,0.871,17.323,3.098c2.452-5.642,6.186-10.697,11.588-13.834c0.621-0.362,1.414-0.113,1.718,0.538l6.851,14.749
			c0.352,0.759-0.142,1.634-0.974,1.723c-3.274,0.352-6.802,1.189-9.743,2.731c9.087,8.427,10.751,21.507,3.621,31.608
			c-4.903,6.949-12.537,10.634-20.617,12.298c-7.605,1.566-14.754,0.201-22.594,1.972c-7.34,1.654-6.093,11.588,2.373,9.875
			c6.998-1.414,19.809-5.04,28.28-6.685c18.346-3.567,25.775,13.957,18.743,27.287c-0.529,1.008-1.174,0.866-2.647,0.866h-7.649
			C409.138,144.929,408.869,144.806,408.688,144.586z M387.567,71.833c-2.354-2.246-5.642-4.194-9.014-3.67
			c-3.724,0.582-5.819,3.91-6.685,7.336c-0.92,3.631-0.612,7.654,0.343,11.241c1.155,4.316,3.426,8.637,6.675,11.745
			c6.249,5.975,13.546,4.84,15.699-3.665c0.915-3.631,0.612-7.654-0.347-11.241C393.082,79.261,390.811,74.94,387.567,71.833z"/>
		<path class="st2" d="M456.714,118.552c0.152,0.387,0.108,0.793-0.122,1.135c-0.235,0.347-0.592,0.533-1.013,0.533h-27.409
			c-0.421,0-0.778-0.186-1.013-0.533c-0.23-0.343-0.274-0.749-0.117-1.135l3.382-8.432V75.665l-4.072-6.748
			c-0.201-0.333-0.235-0.7-0.098-1.057c0.137-0.362,0.401-0.617,0.773-0.734l4.248-1.336c0.015-0.005,0.029-0.01,0.044-0.015
			l20.475-5.584c0.382-0.103,0.749-0.029,1.062,0.21c0.313,0.235,0.48,0.573,0.48,0.964v48.755L456.714,118.552z M441.377,31.935
			l0.093,0.005l0.142-0.005c6.743,0,12.214,5.471,12.214,12.219c0,6.734-5.466,12.268-12.224,12.214h-0.127h-0.113
			c-6.743,0-12.214-5.471-12.214-12.214C429.148,37.406,434.614,31.935,441.377,31.935z"/>
		<path class="st2" d="M523.526,69.464L509.33,81.605c-0.308,0.264-0.69,0.352-1.086,0.254c-0.391-0.093-0.685-0.352-0.837-0.729
			c-0.866-2.163-1.913-4.272-3.171-6.234c-2.329-3.621-6.983-8.882-11.887-7.727c-3.24,0.759-5.163,4.375-6.117,7.267
			c-1.502,4.541-1.644,9.875-0.915,14.573c1.801,11.603,8.857,21.155,21.023,22.902c1.375,0.196,2.77,0.289,4.16,0.289
			c4.673,0,9.376-1.101,13.462-3.401c0.519-0.294,1.155-0.176,1.537,0.284c0.377,0.455,0.372,1.106-0.01,1.561
			c-6.861,8.123-17.49,11.025-27.791,11.025c-19.232,0-34.735-11.28-34.735-31.544c0-20.216,15.591-31.422,34.735-31.422
			c9.327,0,19.021,2.28,25.887,8.96c0.254,0.245,0.382,0.558,0.367,0.91C523.942,68.931,523.795,69.23,523.526,69.464z"/>
		<path class="st2" d="M581.926,65.936l-8.637,12.288c-0.215,0.303-0.519,0.48-0.886,0.514c-0.372,0.034-0.7-0.083-0.964-0.347
			c-3.832-3.768-10.893-11.079-16.565-11.079c-5.804,0-4.766,4.899-1.013,7.424c2.031,1.37,4.429,2.466,6.655,3.479
			c2.75,1.248,5.52,2.442,8.221,3.793c7.747,3.881,15.185,9.195,15.185,18.738c0,16.159-15.679,20.94-29.205,20.94
			c-8.906,0-17.832-2.75-25.383-7.414c-0.299-0.181-0.484-0.45-0.558-0.793c-0.068-0.343,0-0.666,0.201-0.949l9.479-13.35
			c0.215-0.303,0.519-0.48,0.886-0.509c0.367-0.034,0.7,0.088,0.964,0.347c4.37,4.311,9.107,9.141,14.568,12.068
			c1.375,0.739,3.029,1.214,4.571,1.453c2.662,0.406,7.644,0.391,7.644-3.396c0-2.295-3.616-4.478-5.319-5.466
			c-1.904-1.106-3.91-2.085-5.897-3.044c-2.251-1.086-4.517-2.148-6.743-3.279c-2.08-1.052-4.14-2.158-6.112-3.401
			c-2.843-1.786-5.726-3.974-7.712-6.709c-1.189-1.63-1.977-3.484-2.354-5.466c-0.827-4.341,0.372-8.921,2.647-12.645
			c1.311-2.143,3.024-4.076,5.036-5.579c5.261-3.939,12.391-4.85,18.782-4.85c8.285,0,14.808,1.537,22.095,5.461
			c0.318,0.171,0.524,0.44,0.607,0.793S582.137,65.643,581.926,65.936z"/>
		<path class="st2" d="M628.998,98.919l8.701-21.938l-6.988-15.102c-0.181-0.391-0.152-0.807,0.078-1.17
			c0.23-0.362,0.597-0.563,1.028-0.563h23.171c0.494,0,0.915,0.279,1.116,0.729c5.393,12.288,10.604,24.649,16.12,36.878
			l5.368-36.565c0.088-0.602,0.597-1.042,1.204-1.042h19.946c0.421,0,0.788,0.196,1.018,0.553c0.23,0.352,0.269,0.768,0.098,1.155
			l-25.217,57.642c-0.196,0.45-0.621,0.729-1.116,0.729h-15.033c-0.489,0-0.9-0.269-1.106-0.705l-13.629-29.445l-12.865,29.42
			c-0.201,0.45-0.622,0.729-1.116,0.729h-15.038c-0.484,0-0.9-0.269-1.106-0.705l-26.675-57.642
			c-0.181-0.387-0.152-0.807,0.078-1.17c0.23-0.357,0.597-0.563,1.028-0.563h25.158c0.494,0,0.915,0.279,1.116,0.729
			c0.558,1.272-0.328,3.797,0.225,5.07C619.539,77.363,623.855,87.571,628.998,98.919z"/>
		<path class="st2" d="M769.366,118.552c0.157,0.387,0.113,0.793-0.122,1.135c-0.235,0.347-0.592,0.533-1.008,0.533h-23.944
			c-0.67,0-1.219-0.543-1.219-1.214v-3.724c-5.887,4.458-12.763,6.386-20.284,6.386c-8.27,0-16.653-3.142-20.074-11.226
			c-3.401-8.045-0.161-16.922,5.564-22.976c8.701-9.195,22.232-12.268,34.456-12.273c0.103-0.01,0.206-0.015,0.303-0.02
			c-0.137-2.207-0.739-4.634-2.677-5.848c-7.937-4.972-20.529,2.3-27.155,7.013c-0.303,0.215-0.651,0.279-1.013,0.186
			c-0.357-0.093-0.631-0.318-0.793-0.651l-5.285-10.996c-0.152-0.308-0.166-0.631-0.044-0.954c0.122-0.323,0.343-0.553,0.661-0.69
			c17.661-7.61,59.252-9.626,59.252,18.053v28.833L769.366,118.552z M743.073,85.633c-4.874,0.494-9.239,2.711-12.488,6.46
			c-2.623,3.029-4.669,7.389-4.453,11.471c0.088,1.679,0.651,3.279,2.075,4.272c2.633,1.83,6.553,0.734,9.014-0.871
			c3.876-2.53,5.853-6.773,5.853-11.343V85.633z"/>
		<path class="st2" d="M802.937,128.589l4.076,6.748c0.196,0.328,0.23,0.695,0.093,1.057c-0.137,0.362-0.406,0.617-0.773,0.729
			l-4.243,1.341c-0.02,0.005-0.029,0.01-0.049,0.015l-20.475,5.584c-0.377,0.103-0.749,0.029-1.057-0.21
			c-0.313-0.235-0.48-0.573-0.48-0.964V75.665l-4.071-6.748c-0.201-0.333-0.235-0.7-0.098-1.057
			c0.137-0.362,0.406-0.617,0.773-0.734l4.248-1.336c0.015-0.005,0.029-0.01,0.044-0.015l19.065-5.197l0.758-0.328
			c0.157-0.069,0.308-0.103,0.484-0.103h0.489c0.67,0,1.219,0.548,1.219,1.219v4.766c3.171-3.063,6.9-5.481,11.231-6.601
			c4.512-1.17,9.18-1.091,13.663,0.157c13.482,3.753,23.274,17.162,23.274,31.079c0,7.277-2.178,14.27-6.787,19.961
			c-4.091,5.06-9.773,8.642-16.105,10.169c-2.736,0.656-5.554,0.92-8.363,0.773c-6.474-0.352-12.166-2.256-16.917-6.391V128.589z
			 M803.954,95.22c1.145,4.952,3.479,10.115,7.497,13.399c2.623,2.143,6.151,3.494,9.528,2.52c3.058-0.881,5.055-3.381,6.122-6.283
			c1.732-4.688,1.179-10.448,0.078-15.209c-1.023-4.443-2.985-9.034-6.053-12.454c-2.134-2.378-5.119-4.483-8.441-4.414
			c-0.529,0.015-1.057,0.083-1.571,0.206c-0.45,0.108-0.891,0.259-1.316,0.445c-3.088,1.385-4.903,4.634-5.809,7.751
			C802.687,85.657,802.912,90.713,803.954,95.22z"/>
	</g>
</g>
</svg>
