<svg width="357" height="65" viewBox="0 0 357 65" fill="none" xmlns="http://www.w3.org/2000/svg">
<path d="M0 20.0657V44.3213C0 48.3351 2.13643 52.0378 5.58694 54.0339L21.5 63.2626C24.0561 64.7446 27.1972 64.7446 29.7533 63.2626L45.6663 54.0339C49.1168 52.0249 51.2533 48.3222 51.2533 44.3213V20.0657C51.2533 16.0519 49.1168 12.3449 45.6663 10.3531L29.7533 1.11146C27.1972 -0.370488 24.0561 -0.370488 21.5 1.11146L5.58694 10.3402C2.13643 12.3492 0 16.0519 0 20.0657Z" fill="#DC2626"/>
<path d="M11.2043 20.4831L13.2925 21.183C14.0616 21.4465 14.6374 22.0817 14.7877 22.881L15.6686 27.2102C15.6943 27.3225 15.7932 27.3959 15.9092 27.3959C16.0252 27.3959 16.124 27.3225 16.1498 27.2102L17.0306 22.881C17.1939 22.0946 17.761 21.4465 18.5387 21.183L20.6269 20.4831C20.7257 20.4442 20.7902 20.3578 20.7902 20.2584C20.7902 20.159 20.7257 20.0726 20.6269 20.0337L18.5387 19.3338C17.7696 19.0702 17.1939 18.4351 17.0306 17.6358L16.1498 13.3066C16.124 13.1943 16.0252 13.1208 15.9092 13.1208C15.7932 13.1208 15.6943 13.1943 15.6686 13.3066L14.7877 17.6358C14.6245 18.4222 14.0573 19.0702 13.2925 19.3338L11.2043 20.0337C11.1055 20.0726 11.041 20.159 11.041 20.2584C11.041 20.3578 11.1055 20.4442 11.2043 20.4831Z" fill="#FFFCF5"/>
<path d="M22.062 50.7831L21.2843 48.3377C21.121 47.8322 20.7386 47.426 20.2402 47.2446C14.444 45.1491 10.2118 39.7225 9.84225 33.2762C9.81217 32.7794 10.2075 32.3559 10.7016 32.3559H13.2839C13.735 32.3559 14.1045 32.7059 14.1389 33.1552C14.5471 39.1219 19.5055 43.8486 25.5423 43.8486H27.6176C28.7648 43.8486 29.3405 45.2442 28.5285 46.0607L23.4885 51.1287C23.033 51.5867 22.2596 51.3966 22.062 50.7831Z" fill="#FFFCF5"/>
<path d="M40.3787 32.3559H37.7964C37.3452 32.3559 36.9714 32.006 36.9413 31.5523C36.5632 26.0998 32.3869 21.6107 26.9258 20.9454L25.1728 20.7337C24.1072 20.604 23.656 19.2949 24.4166 18.5302L29.0612 13.8597C29.5339 13.3844 30.3374 13.6091 30.5006 14.2572L31.1494 16.8322C31.274 17.3291 31.6135 17.7525 32.0775 17.9685C37.2722 20.3578 40.8943 25.4949 41.238 31.4357C41.2681 31.9325 40.8728 32.3559 40.3787 32.3559Z" fill="#FFFCF5"/>
<path d="M24.3835 28.0794L21.242 31.2383C20.6027 31.8812 20.6027 32.9235 21.242 33.5663L24.3835 36.7253C25.0228 37.3681 26.0593 37.3681 26.6986 36.7253L29.8401 33.5663C30.4794 32.9235 30.4794 31.8812 29.8401 31.2383L26.6986 28.0794C26.0593 27.4365 25.0228 27.4365 24.3835 28.0794Z" fill="#FFFCF5"/>
<path d="M80.9969 15.191C80.9477 14.9938 80.751 14.8459 80.5543 14.8459H68.9967C68.8492 14.8459 68.7017 14.9445 68.6033 15.0924C68.5049 15.2402 68.4558 15.3881 68.5541 15.5853L69.9312 19.0354V43.7782L67.9639 48.6084C67.9148 48.7563 67.9148 48.9534 68.0131 49.1013C68.1115 49.2492 68.259 49.2984 68.4558 49.2984H76.9641C77.1608 49.2984 77.3083 49.2492 77.4067 49.1013C77.5051 48.9534 77.5051 48.7563 77.4559 48.6084L75.4886 43.7782V25.7386L85.7183 49.6435C85.8167 49.7913 85.9642 49.9392 86.1609 49.9392C86.3577 49.9392 86.5544 49.8406 86.6528 49.6435L98.407 24.6543V45.1582L97.03 48.6084C96.9316 48.7563 96.9808 48.9534 97.0791 49.1013C97.1775 49.2492 97.325 49.2984 97.4726 49.2984H108.686C108.883 49.2984 109.03 49.2492 109.129 49.1013C109.227 48.9534 109.227 48.7563 109.178 48.6084L107.801 45.1582V19.0354L109.178 15.5853C109.227 15.3881 109.227 15.2402 109.129 15.0924C109.03 14.9445 108.883 14.8459 108.686 14.8459H97.2267C96.9808 14.8459 96.8332 14.9938 96.7349 15.1417L88.4233 32.639L80.9969 15.191Z" fill="#FFFDF7"/>
<path d="M138.8 45.1582V33.3783C138.8 21.9927 121.784 22.8306 114.554 25.9358C114.456 25.9851 114.357 26.0837 114.308 26.2315C114.259 26.3794 114.259 26.478 114.308 26.6258L116.472 31.1604C116.571 31.2589 116.669 31.3575 116.817 31.4068C116.964 31.4561 117.112 31.4068 117.21 31.3082C119.915 29.386 125.079 26.4287 128.325 28.4495C129.112 28.9424 129.358 29.9282 129.456 30.8646C129.407 30.8646 129.358 30.8646 129.308 30.8646C124.292 30.8646 118.784 32.0968 115.194 35.892C112.882 38.3564 111.554 42.0038 112.931 45.3061C114.308 48.6084 117.751 49.8899 121.144 49.8899C124.243 49.8899 127.046 49.1013 129.456 47.2776V48.8056C129.456 49.1013 129.653 49.2984 129.948 49.2984H139.735C139.932 49.2984 140.079 49.2492 140.178 49.1013C140.227 48.9534 140.276 48.8056 140.227 48.6577L138.8 45.1582ZM129.456 39.2436C129.456 41.1166 128.62 42.8417 127.046 43.8767C126.063 44.5668 124.44 45.0104 123.358 44.2218C122.767 43.8274 122.571 43.1867 122.522 42.4967C122.423 40.8209 123.259 39.0465 124.341 37.765C125.669 36.237 127.44 35.3499 129.456 35.1527V39.2436Z" fill="#FFFDF7"/>
<path d="M167.645 59.4518H170.743C171.383 59.4518 171.628 59.5011 171.825 59.1068C174.727 53.6358 171.678 46.4397 164.153 47.9184C160.71 48.5591 155.448 50.0871 152.595 50.6292C149.153 51.3686 148.612 47.2776 151.612 46.5876C154.858 45.8976 157.759 46.4397 160.858 45.799C164.202 45.1089 167.3 43.581 169.317 40.7716C172.219 36.6314 171.53 31.2589 167.841 27.8088C169.022 27.168 170.497 26.823 171.825 26.6751C172.169 26.6258 172.366 26.2808 172.219 25.9851L169.415 19.9226C169.268 19.6269 168.973 19.5283 168.727 19.6762C166.514 20.9577 164.989 23.0278 163.956 25.3443C161.743 24.4572 159.284 24.1121 156.874 24.1121C142.12 24.1121 138.775 37.5678 147.235 43.4824C143.841 44.9611 140.694 50.3335 142.759 54.5723C144.382 58.0225 147.972 59.1068 151.612 59.1068C154.71 59.0575 161.497 57.2831 164.546 56.396C167.104 55.6073 168.481 57.1353 167.3 58.8111C167.3 58.8604 167.251 58.8604 167.251 58.8604C167.202 58.9589 167.202 59.0575 167.251 59.1068C167.251 59.1561 167.251 59.2054 167.251 59.2547C167.3 59.2547 167.3 59.304 167.3 59.304C167.399 59.4025 167.497 59.4518 167.645 59.4518ZM161.399 34.3148C161.792 35.7442 161.94 37.42 161.546 38.8986C160.661 42.3981 157.71 42.8417 155.153 40.4266C153.825 39.1451 152.89 37.3707 152.399 35.5963C152.005 34.1177 151.907 32.4911 152.251 30.9632C152.595 29.5831 153.481 28.2031 155.005 27.9566C156.382 27.7595 157.71 28.5481 158.694 29.4846C160.022 30.7661 160.956 32.5404 161.399 34.3148Z" fill="#FFFDF7"/>
<path d="M185.557 45.1582V25.1965C185.557 25.0486 185.507 24.9007 185.409 24.8022C185.262 24.7036 185.114 24.6543 184.966 24.7036L176.557 26.9709C176.557 27.0201 176.557 27.0201 176.557 27.0201L174.835 27.5623C174.688 27.6116 174.54 27.7102 174.491 27.858C174.442 28.0059 174.442 28.1538 174.54 28.3016L176.212 31.0618V45.1582L174.835 48.6577C174.737 48.8056 174.786 48.9534 174.884 49.1013C174.983 49.2492 175.13 49.2984 175.278 49.2984H186.491C186.688 49.2984 186.835 49.2492 186.934 49.1013C187.032 48.9534 187.032 48.8056 186.983 48.6577L185.557 45.1582ZM175.671 18.1483C175.671 20.9084 177.934 23.1264 180.688 23.1264H180.737H180.786C183.54 23.1757 185.803 20.9084 185.803 18.1483C185.803 15.3388 183.54 13.1208 180.786 13.1208H180.737H180.688C177.934 13.1208 175.671 15.3388 175.671 18.1483Z" fill="#FFFDF7"/>
<path d="M214.507 28.1538C214.507 28.0059 214.457 27.858 214.359 27.7595C211.556 25.0486 207.572 24.1121 203.736 24.1121C195.916 24.1121 189.572 28.6959 189.572 36.9764C189.572 45.3061 195.867 49.8899 203.736 49.8899C207.966 49.8899 212.343 48.707 215.146 45.4047C215.294 45.2075 215.294 44.9611 215.146 44.7639C214.998 44.5668 214.703 44.5175 214.507 44.6161C212.834 45.6018 210.916 46.0454 208.998 46.0454C208.408 46.0454 207.867 45.9961 207.277 45.8976C202.31 45.2075 199.408 41.2645 198.67 36.5328C198.375 34.6105 198.474 32.3926 199.064 30.5689C199.457 29.386 200.244 27.858 201.572 27.5623C203.588 27.0694 205.457 29.2381 206.441 30.7168C206.933 31.5547 207.375 32.3926 207.72 33.2798C207.818 33.4276 207.916 33.5755 208.064 33.5755C208.261 33.6248 208.408 33.5755 208.507 33.4769L214.31 28.4988C214.457 28.4002 214.507 28.3016 214.507 28.1538Z" fill="#FFFDF7"/>
<path d="M248.339 17.8032C248.29 17.6554 248.191 17.5075 248.093 17.4582C243.962 15.2402 240.322 14.008 235.65 14.008C231.962 14.008 228.076 14.8459 225.076 17.1132C223.109 18.5918 221.634 20.7112 221.339 23.2249C221.142 24.4079 221.289 25.5908 221.683 26.7737C223.896 33.5755 234.814 35.202 239.585 40.1308C240.175 40.7716 240.716 41.5602 240.913 42.3981C241.06 42.8417 241.109 43.4824 240.863 43.926C240.667 44.271 240.372 44.5668 240.027 44.8132C238.749 45.7497 236.781 45.5032 235.355 45.1582C233.142 44.6161 230.978 43.4824 229.06 42.2995C227.289 41.1166 225.519 39.6872 224.093 38.11C223.994 37.9621 223.847 37.9129 223.699 37.9129C223.503 37.9621 223.404 38.0114 223.306 38.1593L218.486 44.9118C218.437 45.0104 218.388 45.1582 218.437 45.3061C218.437 45.454 218.535 45.5525 218.634 45.6511C222.912 48.2634 228.027 50.1363 233.044 50.1363C237.913 50.1363 243.175 49.4463 246.765 45.8483C248.683 43.8767 249.864 41.5602 249.667 38.7508C249.667 38.2086 249.519 37.6664 249.372 37.1242C248.044 33.1319 243.126 30.421 239.634 28.5974C238.306 27.858 236.929 27.168 235.552 26.478C234.372 25.8372 233.142 25.1472 232.011 24.4079C231.027 23.7671 230.142 22.8306 229.749 21.697C229.453 20.9084 229.453 20.0705 229.896 19.3312C230.437 18.444 231.421 18.099 232.404 18.099C236.634 18.099 240.519 21.5984 242.486 25.1472C242.585 25.2951 242.732 25.3936 242.929 25.3936C243.077 25.3936 243.224 25.3443 243.372 25.1965L248.241 18.1975C248.339 18.0497 248.388 17.9511 248.339 17.8032Z" fill="#FFFDF7"/>
<path d="M260.247 27.0694C260.05 26.5273 260.394 25.4922 260.148 24.9993C260.099 24.8022 259.902 24.7036 259.706 24.7036H249.427C249.23 24.7036 249.082 24.7529 248.984 24.9007C248.886 25.0486 248.886 25.2458 248.935 25.3936L259.853 49.052C259.951 49.1999 260.148 49.2984 260.345 49.2984H266.493C266.689 49.2984 266.837 49.1999 266.935 49.0027L272.198 36.9764L277.755 49.052C277.853 49.1999 278.05 49.2984 278.247 49.2984H284.395C284.591 49.2984 284.739 49.1999 284.837 49.0027L295.165 25.3936C295.214 25.2458 295.214 25.0486 295.116 24.9007C295.018 24.7529 294.87 24.7036 294.673 24.7036H286.558C286.263 24.7036 286.067 24.8515 286.067 25.0979L283.854 40.1308C281.591 35.1034 279.476 30.0267 277.263 24.9993C277.165 24.8022 277.017 24.7036 276.771 24.7036H267.329C267.132 24.7036 266.984 24.7529 266.886 24.9007C266.788 25.0486 266.788 25.2458 266.837 25.3936L269.739 31.604L266.148 40.5744C264.034 35.9413 262.312 31.7518 260.247 27.0694Z" fill="#FFFDF7"/>
<path d="M322.173 45.1582V33.3783C322.173 21.9927 305.156 22.8306 297.927 25.9358C297.828 25.9851 297.73 26.0837 297.681 26.2315C297.632 26.3794 297.632 26.478 297.681 26.6258L299.845 31.1604C299.943 31.2589 300.041 31.3575 300.189 31.4068C300.336 31.4561 300.484 31.4068 300.582 31.3082C303.287 29.386 308.451 26.4287 311.697 28.4495C312.484 28.9424 312.73 29.9282 312.828 30.8646C312.779 30.8646 312.73 30.8646 312.681 30.8646C307.664 30.8646 302.156 32.0968 298.566 35.892C296.254 38.3564 294.927 42.0038 296.304 45.3061C297.681 48.6084 301.123 49.8899 304.517 49.8899C307.615 49.8899 310.419 49.1013 312.828 47.2776V48.8056C312.828 49.1013 313.025 49.2984 313.32 49.2984H323.107C323.304 49.2984 323.452 49.2492 323.55 49.1013C323.599 48.9534 323.648 48.8056 323.599 48.6577L322.173 45.1582ZM312.828 39.2436C312.828 41.1166 311.992 42.8417 310.419 43.8767C309.435 44.5668 307.812 45.0104 306.73 44.2218C306.14 43.8274 305.943 43.1867 305.894 42.4967C305.796 40.8209 306.632 39.0465 307.714 37.765C309.042 36.237 310.812 35.3499 312.828 35.1527V39.2436Z" fill="#FFFDF7"/>
<path d="M337.278 47.2776C339.246 49.0027 341.557 49.7913 344.213 49.8899C345.393 49.9885 346.524 49.8899 347.656 49.5942C350.213 48.9534 352.574 47.5241 354.246 45.4047C356.115 43.0881 357 40.2294 357 37.2228C357 31.5547 353.016 26.0344 347.508 24.5064C345.639 23.9643 343.721 23.9643 341.901 24.4572C340.131 24.9007 338.606 25.8865 337.278 27.1187V25.1965C337.278 24.9007 337.082 24.7036 336.787 24.7036H336.59C336.541 24.7036 336.491 24.7036 336.393 24.7529L336.098 24.8515L328.278 26.9709C328.278 27.0201 328.278 27.0201 328.278 27.0201L326.557 27.5623C326.409 27.6116 326.262 27.7102 326.213 27.858C326.163 28.0059 326.163 28.1538 326.262 28.3016L327.934 31.0618V58.6139C327.934 58.7618 327.983 58.9097 328.131 59.0082C328.229 59.1068 328.426 59.1561 328.573 59.1068L336.934 56.7903L338.705 56.2481C338.852 56.1988 338.951 56.1002 339 55.9524C339.049 55.8045 339.049 55.6566 338.951 55.5088L337.278 52.7486V47.2776ZM337.721 33.329C338.114 32.0475 338.852 30.7168 340.131 30.1253C340.278 30.076 340.475 29.9774 340.623 29.9282C340.869 29.8789 341.065 29.8789 341.311 29.8789C342.639 29.8296 343.869 30.7168 344.754 31.6532C345.983 33.0826 346.819 34.9556 347.213 36.7792C347.656 38.7508 347.901 41.1166 347.213 43.0388C346.77 44.2218 345.934 45.2568 344.705 45.6018C343.278 45.9961 341.852 45.454 340.77 44.5668C339.147 43.236 338.164 41.1166 337.721 39.0465C337.278 37.2228 337.18 35.1527 337.721 33.329Z" fill="#FFFDF7"/>
</svg>
