<?xml version="1.0" standalone="no"?>
<!DOCTYPE svg PUBLIC "-//W3C//DTD SVG 20010904//EN"
 "http://www.w3.org/TR/2001/REC-SVG-20010904/DTD/svg10.dtd">
<svg version="1.0" xmlns="http://www.w3.org/2000/svg"
 width="794.000000pt" height="794.000000pt" viewBox="0 0 794.000000 794.000000"
 preserveAspectRatio="xMidYMid meet">
<metadata>
Created by potrace 1.14, written by Peter Selinger 2001-2017
</metadata>
<g transform="translate(0.000000,794.000000) scale(0.100000,-0.100000)"
fill="#000000" stroke="none">
<path d="M3770 7920 c-47 -9 -107 -25 -135 -34 -75 -26 -237 -107 -324 -163
-12 -8 -48 -29 -80 -45 -31 -17 -63 -37 -72 -44 -8 -8 -19 -14 -22 -14 -4 0
-161 -88 -349 -196 -189 -108 -361 -207 -383 -219 -22 -13 -85 -49 -140 -80
-55 -32 -125 -71 -155 -88 -30 -16 -63 -37 -74 -46 -10 -9 -21 -15 -25 -15 -3
1 -35 -15 -71 -36 -79 -46 -96 -55 -280 -160 -80 -45 -156 -89 -170 -98 -14
-9 -27 -17 -30 -17 -14 -1 -135 -86 -200 -140 -81 -68 -145 -133 -200 -205
-19 -25 -37 -47 -41 -50 -13 -11 -99 -161 -131 -230 -35 -75 -81 -208 -92
-265 -4 -16 -9 -41 -11 -55 -3 -14 -10 -52 -15 -85 -5 -34 -9 -747 -9 -1665 0
-1760 -2 -1695 60 -1895 92 -297 279 -555 524 -724 66 -46 380 -231 392 -231
3 0 17 -8 31 -19 15 -10 47 -29 72 -43 25 -14 218 -124 430 -245 212 -121 412
-235 445 -253 33 -18 71 -41 85 -50 14 -10 48 -29 75 -44 28 -14 73 -40 100
-56 28 -17 57 -33 65 -37 8 -4 64 -35 123 -70 60 -35 110 -63 113 -63 3 0 30
-16 60 -35 30 -19 56 -35 59 -35 2 0 28 -14 57 -31 89 -53 216 -99 343 -124
66 -14 263 -12 346 2 85 14 223 57 247 75 6 6 12 8 12 5 0 -5 179 94 383 211
77 45 114 66 167 95 30 17 67 38 82 49 14 10 28 18 31 18 2 0 54 29 115 64 61
36 131 76 154 89 105 59 127 71 188 107 69 40 118 68 190 108 25 13 72 40 105
60 33 19 74 42 90 52 148 84 255 146 283 161 66 39 108 63 152 87 202 111 352
217 433 306 16 17 44 48 63 69 165 178 288 449 330 722 4 28 8 770 9 1650 1
1758 2 1727 -60 1922 -13 43 -25 81 -25 85 -1 4 -21 49 -46 100 -97 196 -201
330 -364 469 -90 75 -208 150 -480 301 -25 14 -200 114 -390 223 -190 109
-370 211 -400 228 -30 17 -56 34 -58 39 -2 4 -8 8 -14 8 -6 0 -76 38 -157 84
-80 46 -163 93 -183 105 -50 28 -81 45 -227 130 -68 39 -127 71 -132 71 -5 0
-9 4 -9 8 0 5 -16 14 -35 22 -19 8 -35 16 -35 19 0 4 -15 12 -32 20 -18 8 -35
17 -38 20 -20 24 -227 105 -296 115 -20 4 -41 9 -47 13 -5 3 -73 7 -151 9
-105 1 -163 -2 -226 -16z m-973 -1592 c5 -7 34 -132 63 -278 29 -146 60 -285
68 -310 10 -28 35 -64 66 -95 47 -47 62 -55 201 -103 83 -29 157 -56 165 -61
37 -21 12 -37 -145 -91 -169 -58 -206 -78 -249 -134 -38 -50 -42 -63 -102
-360 -67 -330 -61 -308 -87 -304 -20 3 -26 24 -79 288 -84 415 -89 422 -352
510 -86 28 -158 56 -162 61 -12 21 23 40 159 85 158 52 200 75 246 131 40 49
41 51 106 368 30 149 58 278 61 288 6 20 27 22 41 5z m1743 -75 c28 -25 36
-48 78 -214 59 -233 71 -253 185 -310 404 -203 706 -504 902 -897 103 -207
179 -480 192 -691 6 -97 6 -98 -24 -131 l-29 -33 -196 0 c-263 -1 -254 -7
-281 193 -22 159 -57 273 -132 427 -196 400 -555 679 -985 766 -41 9 -138 23
-215 32 -153 18 -186 31 -222 85 -25 36 -30 99 -12 147 11 31 575 604 624 634
42 27 79 24 115 -8z m-469 -1732 c57 -37 442 -426 463 -468 20 -41 21 -123 0
-171 -19 -46 -422 -455 -476 -483 -49 -25 -127 -25 -176 0 -20 11 -137 120
-258 243 -225 226 -244 251 -244 322 0 71 20 98 248 328 124 125 239 234 256
242 17 9 56 16 87 16 44 0 64 -6 100 -29z m-1575 -566 c40 -16 64 -62 64 -121
0 -51 37 -226 66 -314 119 -355 397 -672 730 -830 213 -102 353 -131 676 -139
228 -6 249 -8 274 -27 44 -32 66 -68 71 -117 5 -37 1 -54 -20 -89 -14 -24
-171 -188 -349 -365 -300 -300 -326 -323 -358 -323 -19 0 -49 9 -66 19 -29 18
-37 36 -93 210 -72 222 -91 251 -203 290 -34 13 -111 47 -170 76 -605 300
-1010 882 -1077 1549 -12 119 -1 158 51 181 47 21 355 21 404 0z"/>
</g>
</svg>
