<?xml version="1.0" encoding="utf-8"?>
<!-- Generator: Adobe Illustrator 26.1.0, SVG Export Plug-In . SVG Version: 6.00 Build 0)  -->
<svg version="1.1" xmlns="http://www.w3.org/2000/svg" xmlns:xlink="http://www.w3.org/1999/xlink" x="0px" y="0px"
	 viewBox="0 0 105.24 106.02" style="enable-background:new 0 0 105.24 106.02;" xml:space="preserve">
<style type="text/css">
	.st0{display:none;}
	.st1{display:inline;fill:#101827;}
	.st2{fill:#FFFDF7;}
</style>
<g id="Background" class="st0">
	
		<rect id="Background_00000089563853060944530290000015811616216641914287_" x="-289.38" y="-20.001" class="st1" width="684" height="158"/>
</g>
<g id="Magic_x5F_logomark_x5F_On_x5F_Dark_x5F_AW">
	<g>
		<path class="st2" d="M104.04,51.35l-15.5-5.22c-5.7-1.91-9.92-6.72-11.12-12.57L70.88,1.4C70.7,0.6,69.98,0,69.14,0
			s-1.56,0.6-1.74,1.4l-6.53,32.16c-1.2,5.85-5.43,10.66-11.13,12.57l-15.5,5.22c-0.72,0.24-1.2,0.93-1.2,1.67
			c0,0.75,0.48,1.44,1.2,1.68l15.5,5.22c5.7,1.91,9.93,6.72,11.13,12.57l6.53,32.13c0.18,0.8,0.9,1.4,1.74,1.4s1.56-0.6,1.74-1.4
			l6.54-32.13c1.2-5.85,5.42-10.66,11.12-12.57l15.5-5.22c0.72-0.24,1.2-0.93,1.2-1.68C105.24,52.28,104.76,51.59,104.04,51.35"/>
		<path class="st2" d="M20.75,21.88l5.46,1.86c2,0.68,3.5,2.35,3.92,4.44l2.31,11.35c0.06,0.3,0.3,0.51,0.6,0.51
			c0.3,0,0.54-0.21,0.6-0.51l2.31-11.35c0.42-2.06,1.92-3.76,3.93-4.44l5.46-1.86c0.23-0.08,0.41-0.32,0.41-0.59
			s-0.18-0.51-0.41-0.6l-5.46-1.85c-2.01-0.69-3.51-2.36-3.93-4.45L33.64,3.05c-0.06-0.3-0.3-0.51-0.6-0.51
			c-0.3,0-0.54,0.21-0.6,0.51l-2.31,11.34c-0.42,2.06-1.92,3.76-3.92,4.45l-5.46,1.85c-0.24,0.09-0.42,0.33-0.42,0.6
			S20.51,21.8,20.75,21.88"/>
		<path class="st2" d="M33.49,77.63l-7.31-2.48c-2.7-0.9-4.71-3.17-5.25-5.94l-3.09-15.2c-0.09-0.39-0.42-0.66-0.81-0.66
			c-0.39,0-0.75,0.27-0.81,0.66l-3.09,15.2c-0.57,2.77-2.58,5.04-5.24,5.94l-7.32,2.48C0.24,77.75,0,78.04,0,78.4
			c0,0.36,0.24,0.69,0.57,0.78l7.32,2.48c2.69,0.89,4.7,3.16,5.24,5.94l3.09,15.2c0.09,0.38,0.42,0.65,0.81,0.65
			c0.39,0,0.75-0.27,0.81-0.65l3.09-15.2c0.57-2.78,2.58-5.05,5.25-5.94l7.31-2.48c0.33-0.12,0.57-0.42,0.57-0.78
			C34.06,78.04,33.82,77.72,33.49,77.63"/>
	</g>
</g>
</svg>
